<?xml version="1.0" encoding="UTF-8" standalone="no"?>
<!DOCTYPE svg PUBLIC "-//W3C//DTD SVG 1.1//EN"
 "http://www.w3.org/Graphics/SVG/1.1/DTD/svg11.dtd">
<!-- Generated by graphviz version 2.38.0 (20140413.2041)
 -->
<!-- Title: G Pages: 1 -->
<svg width="323pt" height="387pt"
 viewBox="0.00 0.00 323.00 387.00" xmlns="http://www.w3.org/2000/svg" xmlns:xlink="http://www.w3.org/1999/xlink">
<g id="graph0" class="graph" transform="scale(1 1) rotate(0) translate(4 383)">
<title>G</title>
<polygon fill="white" stroke="none" points="-4,4 -4,-383 319,-383 319,4 -4,4"/>
<!-- 620333534512 -->
<g id="node1" class="node"><title>620333534512</title>
<polygon fill="none" stroke="black" points="4,-332.5 4,-378.5 311,-378.5 311,-332.5 4,-332.5"/>
<text text-anchor="middle" x="67" y="-351.8" font-family="Times New Roman,serif" font-size="14.00">input_1: InputLayer</text>
<polyline fill="none" stroke="black" points="130,-332.5 130,-378.5 "/>
<text text-anchor="middle" x="158" y="-363.3" font-family="Times New Roman,serif" font-size="14.00">input:</text>
<polyline fill="none" stroke="black" points="130,-355.5 186,-355.5 "/>
<text text-anchor="middle" x="158" y="-340.3" font-family="Times New Roman,serif" font-size="14.00">output:</text>
<polyline fill="none" stroke="black" points="186,-332.5 186,-378.5 "/>
<text text-anchor="middle" x="248.5" y="-363.3" font-family="Times New Roman,serif" font-size="14.00">(None, 100, 100, 3)</text>
<polyline fill="none" stroke="black" points="186,-355.5 311,-355.5 "/>
<text text-anchor="middle" x="248.5" y="-340.3" font-family="Times New Roman,serif" font-size="14.00">(None, 100, 100, 3)</text>
</g>
<!-- 620468145792 -->
<g id="node2" class="node"><title>620468145792</title>
<polygon fill="none" stroke="black" points="0,-249.5 0,-295.5 315,-295.5 315,-249.5 0,-249.5"/>
<text text-anchor="middle" x="63.5" y="-268.8" font-family="Times New Roman,serif" font-size="14.00">conv2d_1: Conv2D</text>
<polyline fill="none" stroke="black" points="127,-249.5 127,-295.5 "/>
<text text-anchor="middle" x="155" y="-280.3" font-family="Times New Roman,serif" font-size="14.00">input:</text>
<polyline fill="none" stroke="black" points="127,-272.5 183,-272.5 "/>
<text text-anchor="middle" x="155" y="-257.3" font-family="Times New Roman,serif" font-size="14.00">output:</text>
<polyline fill="none" stroke="black" points="183,-249.5 183,-295.5 "/>
<text text-anchor="middle" x="249" y="-280.3" font-family="Times New Roman,serif" font-size="14.00">(None, 100, 100, 3)</text>
<polyline fill="none" stroke="black" points="183,-272.5 315,-272.5 "/>
<text text-anchor="middle" x="249" y="-257.3" font-family="Times New Roman,serif" font-size="14.00">(None, 100, 100, 64)</text>
</g>
<!-- 620333534512&#45;&gt;620468145792 -->
<g id="edge1" class="edge"><title>620333534512&#45;&gt;620468145792</title>
<path fill="none" stroke="black" d="M157.5,-332.366C157.5,-324.152 157.5,-314.658 157.5,-305.725"/>
<polygon fill="black" stroke="black" points="161,-305.607 157.5,-295.607 154,-305.607 161,-305.607"/>
</g>
<!-- 620468269408 -->
<g id="node3" class="node"><title>620468269408</title>
<polygon fill="none" stroke="black" points="0,-166.5 0,-212.5 315,-212.5 315,-166.5 0,-166.5"/>
<text text-anchor="middle" x="63.5" y="-185.8" font-family="Times New Roman,serif" font-size="14.00">conv2d_2: Conv2D</text>
<polyline fill="none" stroke="black" points="127,-166.5 127,-212.5 "/>
<text text-anchor="middle" x="155" y="-197.3" font-family="Times New Roman,serif" font-size="14.00">input:</text>
<polyline fill="none" stroke="black" points="127,-189.5 183,-189.5 "/>
<text text-anchor="middle" x="155" y="-174.3" font-family="Times New Roman,serif" font-size="14.00">output:</text>
<polyline fill="none" stroke="black" points="183,-166.5 183,-212.5 "/>
<text text-anchor="middle" x="249" y="-197.3" font-family="Times New Roman,serif" font-size="14.00">(None, 100, 100, 64)</text>
<polyline fill="none" stroke="black" points="183,-189.5 315,-189.5 "/>
<text text-anchor="middle" x="249" y="-174.3" font-family="Times New Roman,serif" font-size="14.00">(None, 100, 100, 32)</text>
</g>
<!-- 620468145792&#45;&gt;620468269408 -->
<g id="edge2" class="edge"><title>620468145792&#45;&gt;620468269408</title>
<path fill="none" stroke="black" d="M157.5,-249.366C157.5,-241.152 157.5,-231.658 157.5,-222.725"/>
<polygon fill="black" stroke="black" points="161,-222.607 157.5,-212.607 154,-222.607 161,-222.607"/>
</g>
<!-- 620470094536 -->
<g id="node4" class="node"><title>620470094536</title>
<polygon fill="none" stroke="black" points="0,-83.5 0,-129.5 315,-129.5 315,-83.5 0,-83.5"/>
<text text-anchor="middle" x="63.5" y="-102.8" font-family="Times New Roman,serif" font-size="14.00">conv2d_3: Conv2D</text>
<polyline fill="none" stroke="black" points="127,-83.5 127,-129.5 "/>
<text text-anchor="middle" x="155" y="-114.3" font-family="Times New Roman,serif" font-size="14.00">input:</text>
<polyline fill="none" stroke="black" points="127,-106.5 183,-106.5 "/>
<text text-anchor="middle" x="155" y="-91.3" font-family="Times New Roman,serif" font-size="14.00">output:</text>
<polyline fill="none" stroke="black" points="183,-83.5 183,-129.5 "/>
<text text-anchor="middle" x="249" y="-114.3" font-family="Times New Roman,serif" font-size="14.00">(None, 100, 100, 32)</text>
<polyline fill="none" stroke="black" points="183,-106.5 315,-106.5 "/>
<text text-anchor="middle" x="249" y="-91.3" font-family="Times New Roman,serif" font-size="14.00">(None, 100, 100, 32)</text>
</g>
<!-- 620468269408&#45;&gt;620470094536 -->
<g id="edge3" class="edge"><title>620468269408&#45;&gt;620470094536</title>
<path fill="none" stroke="black" d="M157.5,-166.366C157.5,-158.152 157.5,-148.658 157.5,-139.725"/>
<polygon fill="black" stroke="black" points="161,-139.607 157.5,-129.607 154,-139.607 161,-139.607"/>
</g>
<!-- 620470251816 -->
<g id="node5" class="node"><title>620470251816</title>
<polygon fill="none" stroke="black" points="0,-0.5 0,-46.5 315,-46.5 315,-0.5 0,-0.5"/>
<text text-anchor="middle" x="63.5" y="-19.8" font-family="Times New Roman,serif" font-size="14.00">conv2d_4: Conv2D</text>
<polyline fill="none" stroke="black" points="127,-0.5 127,-46.5 "/>
<text text-anchor="middle" x="155" y="-31.3" font-family="Times New Roman,serif" font-size="14.00">input:</text>
<polyline fill="none" stroke="black" points="127,-23.5 183,-23.5 "/>
<text text-anchor="middle" x="155" y="-8.3" font-family="Times New Roman,serif" font-size="14.00">output:</text>
<polyline fill="none" stroke="black" points="183,-0.5 183,-46.5 "/>
<text text-anchor="middle" x="249" y="-31.3" font-family="Times New Roman,serif" font-size="14.00">(None, 100, 100, 32)</text>
<polyline fill="none" stroke="black" points="183,-23.5 315,-23.5 "/>
<text text-anchor="middle" x="249" y="-8.3" font-family="Times New Roman,serif" font-size="14.00">(None, 100, 100, 3)</text>
</g>
<!-- 620470094536&#45;&gt;620470251816 -->
<g id="edge4" class="edge"><title>620470094536&#45;&gt;620470251816</title>
<path fill="none" stroke="black" d="M157.5,-83.3664C157.5,-75.1516 157.5,-65.6579 157.5,-56.7252"/>
<polygon fill="black" stroke="black" points="161,-56.6068 157.5,-46.6068 154,-56.6069 161,-56.6068"/>
</g>
</g>
</svg>
