<?xml version="1.0" encoding="UTF-8" standalone="no"?>
<!DOCTYPE svg PUBLIC "-//W3C//DTD SVG 1.1//EN"
 "http://www.w3.org/Graphics/SVG/1.1/DTD/svg11.dtd">
<!-- Generated by graphviz version 2.38.0 (20140413.2041)
 -->
<!-- Title: G Pages: 1 -->
<svg width="310pt" height="304pt"
 viewBox="0.00 0.00 310.00 304.00" xmlns="http://www.w3.org/2000/svg" xmlns:xlink="http://www.w3.org/1999/xlink">
<g id="graph0" class="graph" transform="scale(1 1) rotate(0) translate(4 300)">
<title>G</title>
<polygon fill="white" stroke="none" points="-4,4 -4,-300 306,-300 306,4 -4,4"/>
<!-- 555592027328 -->
<g id="node1" class="node"><title>555592027328</title>
<polygon fill="none" stroke="black" points="4,-249.5 4,-295.5 298,-295.5 298,-249.5 4,-249.5"/>
<text text-anchor="middle" x="67" y="-268.8" font-family="Times New Roman,serif" font-size="14.00">input_1: InputLayer</text>
<polyline fill="none" stroke="black" points="130,-249.5 130,-295.5 "/>
<text text-anchor="middle" x="158" y="-280.3" font-family="Times New Roman,serif" font-size="14.00">input:</text>
<polyline fill="none" stroke="black" points="130,-272.5 186,-272.5 "/>
<text text-anchor="middle" x="158" y="-257.3" font-family="Times New Roman,serif" font-size="14.00">output:</text>
<polyline fill="none" stroke="black" points="186,-249.5 186,-295.5 "/>
<text text-anchor="middle" x="242" y="-280.3" font-family="Times New Roman,serif" font-size="14.00">(None, 3, 32, 32)</text>
<polyline fill="none" stroke="black" points="186,-272.5 298,-272.5 "/>
<text text-anchor="middle" x="242" y="-257.3" font-family="Times New Roman,serif" font-size="14.00">(None, 3, 32, 32)</text>
</g>
<!-- 555726497608 -->
<g id="node2" class="node"><title>555726497608</title>
<polygon fill="none" stroke="black" points="0,-166.5 0,-212.5 302,-212.5 302,-166.5 0,-166.5"/>
<text text-anchor="middle" x="63.5" y="-185.8" font-family="Times New Roman,serif" font-size="14.00">conv2d_1: Conv2D</text>
<polyline fill="none" stroke="black" points="127,-166.5 127,-212.5 "/>
<text text-anchor="middle" x="155" y="-197.3" font-family="Times New Roman,serif" font-size="14.00">input:</text>
<polyline fill="none" stroke="black" points="127,-189.5 183,-189.5 "/>
<text text-anchor="middle" x="155" y="-174.3" font-family="Times New Roman,serif" font-size="14.00">output:</text>
<polyline fill="none" stroke="black" points="183,-166.5 183,-212.5 "/>
<text text-anchor="middle" x="242.5" y="-197.3" font-family="Times New Roman,serif" font-size="14.00">(None, 3, 32, 32)</text>
<polyline fill="none" stroke="black" points="183,-189.5 302,-189.5 "/>
<text text-anchor="middle" x="242.5" y="-174.3" font-family="Times New Roman,serif" font-size="14.00">(None, 64, 32, 32)</text>
</g>
<!-- 555592027328&#45;&gt;555726497608 -->
<g id="edge1" class="edge"><title>555592027328&#45;&gt;555726497608</title>
<path fill="none" stroke="black" d="M151,-249.366C151,-241.152 151,-231.658 151,-222.725"/>
<polygon fill="black" stroke="black" points="154.5,-222.607 151,-212.607 147.5,-222.607 154.5,-222.607"/>
</g>
<!-- 555726497720 -->
<g id="node3" class="node"><title>555726497720</title>
<polygon fill="none" stroke="black" points="0,-83.5 0,-129.5 302,-129.5 302,-83.5 0,-83.5"/>
<text text-anchor="middle" x="63.5" y="-102.8" font-family="Times New Roman,serif" font-size="14.00">conv2d_2: Conv2D</text>
<polyline fill="none" stroke="black" points="127,-83.5 127,-129.5 "/>
<text text-anchor="middle" x="155" y="-114.3" font-family="Times New Roman,serif" font-size="14.00">input:</text>
<polyline fill="none" stroke="black" points="127,-106.5 183,-106.5 "/>
<text text-anchor="middle" x="155" y="-91.3" font-family="Times New Roman,serif" font-size="14.00">output:</text>
<polyline fill="none" stroke="black" points="183,-83.5 183,-129.5 "/>
<text text-anchor="middle" x="242.5" y="-114.3" font-family="Times New Roman,serif" font-size="14.00">(None, 64, 32, 32)</text>
<polyline fill="none" stroke="black" points="183,-106.5 302,-106.5 "/>
<text text-anchor="middle" x="242.5" y="-91.3" font-family="Times New Roman,serif" font-size="14.00">(None, 32, 32, 32)</text>
</g>
<!-- 555726497608&#45;&gt;555726497720 -->
<g id="edge2" class="edge"><title>555726497608&#45;&gt;555726497720</title>
<path fill="none" stroke="black" d="M151,-166.366C151,-158.152 151,-148.658 151,-139.725"/>
<polygon fill="black" stroke="black" points="154.5,-139.607 151,-129.607 147.5,-139.607 154.5,-139.607"/>
</g>
<!-- 554075583488 -->
<g id="node4" class="node"><title>554075583488</title>
<polygon fill="none" stroke="black" points="0,-0.5 0,-46.5 302,-46.5 302,-0.5 0,-0.5"/>
<text text-anchor="middle" x="63.5" y="-19.8" font-family="Times New Roman,serif" font-size="14.00">conv2d_3: Conv2D</text>
<polyline fill="none" stroke="black" points="127,-0.5 127,-46.5 "/>
<text text-anchor="middle" x="155" y="-31.3" font-family="Times New Roman,serif" font-size="14.00">input:</text>
<polyline fill="none" stroke="black" points="127,-23.5 183,-23.5 "/>
<text text-anchor="middle" x="155" y="-8.3" font-family="Times New Roman,serif" font-size="14.00">output:</text>
<polyline fill="none" stroke="black" points="183,-0.5 183,-46.5 "/>
<text text-anchor="middle" x="242.5" y="-31.3" font-family="Times New Roman,serif" font-size="14.00">(None, 32, 32, 32)</text>
<polyline fill="none" stroke="black" points="183,-23.5 302,-23.5 "/>
<text text-anchor="middle" x="242.5" y="-8.3" font-family="Times New Roman,serif" font-size="14.00">(None, 3, 32, 32)</text>
</g>
<!-- 555726497720&#45;&gt;554075583488 -->
<g id="edge3" class="edge"><title>555726497720&#45;&gt;554075583488</title>
<path fill="none" stroke="black" d="M151,-83.3664C151,-75.1516 151,-65.6579 151,-56.7252"/>
<polygon fill="black" stroke="black" points="154.5,-56.6068 151,-46.6068 147.5,-56.6069 154.5,-56.6068"/>
</g>
</g>
</svg>
