<?xml version="1.0" encoding="UTF-8" standalone="no"?>
<!DOCTYPE svg PUBLIC "-//W3C//DTD SVG 1.1//EN"
 "http://www.w3.org/Graphics/SVG/1.1/DTD/svg11.dtd">
<!-- Generated by graphviz version 2.38.0 (20140413.2041)
 -->
<!-- Title: G Pages: 1 -->
<svg width="316pt" height="387pt"
 viewBox="0.00 0.00 316.00 387.00" xmlns="http://www.w3.org/2000/svg" xmlns:xlink="http://www.w3.org/1999/xlink">
<g id="graph0" class="graph" transform="scale(1 1) rotate(0) translate(4 383)">
<title>G</title>
<polygon fill="white" stroke="none" points="-4,4 -4,-383 312,-383 312,4 -4,4"/>
<!-- 850673831384 -->
<g id="node1" class="node"><title>850673831384</title>
<polygon fill="none" stroke="black" points="0.5,-332.5 0.5,-378.5 307.5,-378.5 307.5,-332.5 0.5,-332.5"/>
<text text-anchor="middle" x="63.5" y="-351.8" font-family="Times New Roman,serif" font-size="14.00">input_1: InputLayer</text>
<polyline fill="none" stroke="black" points="126.5,-332.5 126.5,-378.5 "/>
<text text-anchor="middle" x="154.5" y="-363.3" font-family="Times New Roman,serif" font-size="14.00">input:</text>
<polyline fill="none" stroke="black" points="126.5,-355.5 182.5,-355.5 "/>
<text text-anchor="middle" x="154.5" y="-340.3" font-family="Times New Roman,serif" font-size="14.00">output:</text>
<polyline fill="none" stroke="black" points="182.5,-332.5 182.5,-378.5 "/>
<text text-anchor="middle" x="245" y="-363.3" font-family="Times New Roman,serif" font-size="14.00">(None, 100, 100, 3)</text>
<polyline fill="none" stroke="black" points="182.5,-355.5 307.5,-355.5 "/>
<text text-anchor="middle" x="245" y="-340.3" font-family="Times New Roman,serif" font-size="14.00">(None, 100, 100, 3)</text>
</g>
<!-- 850808436216 -->
<g id="node2" class="node"><title>850808436216</title>
<polygon fill="none" stroke="black" points="0,-249.5 0,-295.5 308,-295.5 308,-249.5 0,-249.5"/>
<text text-anchor="middle" x="63.5" y="-268.8" font-family="Times New Roman,serif" font-size="14.00">conv2d_1: Conv2D</text>
<polyline fill="none" stroke="black" points="127,-249.5 127,-295.5 "/>
<text text-anchor="middle" x="155" y="-280.3" font-family="Times New Roman,serif" font-size="14.00">input:</text>
<polyline fill="none" stroke="black" points="127,-272.5 183,-272.5 "/>
<text text-anchor="middle" x="155" y="-257.3" font-family="Times New Roman,serif" font-size="14.00">output:</text>
<polyline fill="none" stroke="black" points="183,-249.5 183,-295.5 "/>
<text text-anchor="middle" x="245.5" y="-280.3" font-family="Times New Roman,serif" font-size="14.00">(None, 100, 100, 3)</text>
<polyline fill="none" stroke="black" points="183,-272.5 308,-272.5 "/>
<text text-anchor="middle" x="245.5" y="-257.3" font-family="Times New Roman,serif" font-size="14.00">(None, 92, 92, 64)</text>
</g>
<!-- 850673831384&#45;&gt;850808436216 -->
<g id="edge1" class="edge"><title>850673831384&#45;&gt;850808436216</title>
<path fill="none" stroke="black" d="M154,-332.366C154,-324.152 154,-314.658 154,-305.725"/>
<polygon fill="black" stroke="black" points="157.5,-305.607 154,-295.607 150.5,-305.607 157.5,-305.607"/>
</g>
<!-- 850808437112 -->
<g id="node3" class="node"><title>850808437112</title>
<polygon fill="none" stroke="black" points="3,-166.5 3,-212.5 305,-212.5 305,-166.5 3,-166.5"/>
<text text-anchor="middle" x="66.5" y="-185.8" font-family="Times New Roman,serif" font-size="14.00">conv2d_2: Conv2D</text>
<polyline fill="none" stroke="black" points="130,-166.5 130,-212.5 "/>
<text text-anchor="middle" x="158" y="-197.3" font-family="Times New Roman,serif" font-size="14.00">input:</text>
<polyline fill="none" stroke="black" points="130,-189.5 186,-189.5 "/>
<text text-anchor="middle" x="158" y="-174.3" font-family="Times New Roman,serif" font-size="14.00">output:</text>
<polyline fill="none" stroke="black" points="186,-166.5 186,-212.5 "/>
<text text-anchor="middle" x="245.5" y="-197.3" font-family="Times New Roman,serif" font-size="14.00">(None, 92, 92, 64)</text>
<polyline fill="none" stroke="black" points="186,-189.5 305,-189.5 "/>
<text text-anchor="middle" x="245.5" y="-174.3" font-family="Times New Roman,serif" font-size="14.00">(None, 90, 90, 32)</text>
</g>
<!-- 850808436216&#45;&gt;850808437112 -->
<g id="edge2" class="edge"><title>850808436216&#45;&gt;850808437112</title>
<path fill="none" stroke="black" d="M154,-249.366C154,-241.152 154,-231.658 154,-222.725"/>
<polygon fill="black" stroke="black" points="157.5,-222.607 154,-212.607 150.5,-222.607 157.5,-222.607"/>
</g>
<!-- 850808709472 -->
<g id="node4" class="node"><title>850808709472</title>
<polygon fill="none" stroke="black" points="3,-83.5 3,-129.5 305,-129.5 305,-83.5 3,-83.5"/>
<text text-anchor="middle" x="66.5" y="-102.8" font-family="Times New Roman,serif" font-size="14.00">conv2d_3: Conv2D</text>
<polyline fill="none" stroke="black" points="130,-83.5 130,-129.5 "/>
<text text-anchor="middle" x="158" y="-114.3" font-family="Times New Roman,serif" font-size="14.00">input:</text>
<polyline fill="none" stroke="black" points="130,-106.5 186,-106.5 "/>
<text text-anchor="middle" x="158" y="-91.3" font-family="Times New Roman,serif" font-size="14.00">output:</text>
<polyline fill="none" stroke="black" points="186,-83.5 186,-129.5 "/>
<text text-anchor="middle" x="245.5" y="-114.3" font-family="Times New Roman,serif" font-size="14.00">(None, 90, 90, 32)</text>
<polyline fill="none" stroke="black" points="186,-106.5 305,-106.5 "/>
<text text-anchor="middle" x="245.5" y="-91.3" font-family="Times New Roman,serif" font-size="14.00">(None, 90, 90, 32)</text>
</g>
<!-- 850808437112&#45;&gt;850808709472 -->
<g id="edge3" class="edge"><title>850808437112&#45;&gt;850808709472</title>
<path fill="none" stroke="black" d="M154,-166.366C154,-158.152 154,-148.658 154,-139.725"/>
<polygon fill="black" stroke="black" points="157.5,-139.607 154,-129.607 150.5,-139.607 157.5,-139.607"/>
</g>
<!-- 850820257384 -->
<g id="node5" class="node"><title>850820257384</title>
<polygon fill="none" stroke="black" points="3,-0.5 3,-46.5 305,-46.5 305,-0.5 3,-0.5"/>
<text text-anchor="middle" x="66.5" y="-19.8" font-family="Times New Roman,serif" font-size="14.00">conv2d_4: Conv2D</text>
<polyline fill="none" stroke="black" points="130,-0.5 130,-46.5 "/>
<text text-anchor="middle" x="158" y="-31.3" font-family="Times New Roman,serif" font-size="14.00">input:</text>
<polyline fill="none" stroke="black" points="130,-23.5 186,-23.5 "/>
<text text-anchor="middle" x="158" y="-8.3" font-family="Times New Roman,serif" font-size="14.00">output:</text>
<polyline fill="none" stroke="black" points="186,-0.5 186,-46.5 "/>
<text text-anchor="middle" x="245.5" y="-31.3" font-family="Times New Roman,serif" font-size="14.00">(None, 90, 90, 32)</text>
<polyline fill="none" stroke="black" points="186,-23.5 305,-23.5 "/>
<text text-anchor="middle" x="245.5" y="-8.3" font-family="Times New Roman,serif" font-size="14.00">(None, 86, 86, 3)</text>
</g>
<!-- 850808709472&#45;&gt;850820257384 -->
<g id="edge4" class="edge"><title>850808709472&#45;&gt;850820257384</title>
<path fill="none" stroke="black" d="M154,-83.3664C154,-75.1516 154,-65.6579 154,-56.7252"/>
<polygon fill="black" stroke="black" points="157.5,-56.6068 154,-46.6068 150.5,-56.6069 157.5,-56.6068"/>
</g>
</g>
</svg>
